<svg xmlns="http://www.w3.org/2000/svg" version="1.1" xmlns:xlink="http://www.w3.org/1999/xlink" viewBox="0 0 280.1 386.4">
  <defs>
    <style>
      .cls-1 {
        fill: #6f6f6f;
      }

      .cls-2 {
        fill: #757575;
      }

      .cls-3 {
        fill: #525252;
      }

      .cls-4 {
        fill: #646464;
      }

      .cls-5 {
        fill: #181818;
      }

      .cls-6 {
        fill: #5f5f5f;
      }

      .cls-7 {
        fill: #111;
      }

      .cls-8 {
        fill: #585858;
      }

      .cls-9 {
        fill: url(#linear-gradient-3);
      }

      .cls-9, .cls-10, .cls-11, .cls-12, .cls-13, .cls-14, .cls-15, .cls-16, .cls-17, .cls-18 {
        isolation: isolate;
      }

      .cls-9, .cls-10, .cls-11, .cls-12, .cls-13, .cls-14, .cls-16, .cls-17, .cls-18 {
        mix-blend-mode: multiply;
      }

      .cls-19 {
        fill: #5a5a5a;
      }

      .cls-20 {
        fill: #4f4f4f;
      }

      .cls-21 {
        fill: #7c7c7c;
      }

      .cls-22 {
        fill: #313131;
      }

      .cls-23 {
        fill: #898989;
      }

      .cls-24 {
        fill: #7b7b7b;
      }

      .cls-25 {
        fill: #cacaca;
      }

      .cls-26 {
        fill: #434343;
      }

      .cls-27 {
        fill: #252525;
      }

      .cls-28 {
        fill: #010101;
      }

      .cls-29 {
        fill: #8b8b8b;
      }

      .cls-30 {
        fill: #9c9c9c;
      }

      .cls-31 {
        fill: #797979;
      }

      .cls-32 {
        fill: #838383;
      }

      .cls-10 {
        fill: url(#linear-gradient-2);
      }

      .cls-33 {
        fill: #2c2c2c;
      }

      .cls-34 {
        fill: #141414;
      }

      .cls-35 {
        fill: #c3c3c3;
      }

      .cls-11 {
        fill: url(#linear-gradient-5);
      }

      .cls-36 {
        fill: #2a2a2a;
      }

      .cls-37 {
        fill: #9a9a9a;
      }

      .cls-38 {
        fill: #fcfcfc;
      }

      .cls-39 {
        fill: #777;
      }

      .cls-40 {
        fill: #727272;
      }

      .cls-41 {
        fill: #b8b8b8;
      }

      .cls-42 {
        fill: #d7d7d7;
      }

      .cls-43 {
        fill: #b1b1b1;
      }

      .cls-44 {
        fill: #a7a7a7;
      }

      .cls-45 {
        fill: #4a4a4a;
      }

      .cls-46 {
        fill: #848484;
      }

      .cls-47 {
        fill: #7d7d7d;
      }

      .cls-48 {
        fill: #4e4e4e;
      }

      .cls-49 {
        fill: #f6f6f6;
      }

      .cls-50 {
        fill: #3e3e3e;
      }

      .cls-51 {
        fill: #121212;
      }

      .cls-52 {
        fill: #505050;
      }

      .cls-53 {
        fill: #080808;
      }

      .cls-54 {
        fill: #c2c2c2;
      }

      .cls-55 {
        fill: #767676;
      }

      .cls-56 {
        fill: #272727;
      }

      .cls-57 {
        fill: #494949;
      }

      .cls-58 {
        fill: #3f3f3f;
      }

      .cls-59 {
        fill: #9f9f9f;
      }

      .cls-60 {
        fill: #4d4d4d;
      }

      .cls-61 {
        fill: #0c0c0c;
      }

      .cls-62 {
        fill: #bababa;
      }

      .cls-63 {
        fill: #7e7e7e;
      }

      .cls-64 {
        fill: #8f8f8f;
      }

      .cls-65 {
        fill: #020202;
      }

      .cls-66 {
        fill: #626262;
      }

      .cls-67 {
        fill: #2d2d2d;
      }

      .cls-68 {
        fill: #a4a4a4;
      }

      .cls-69 {
        fill: #c9c9c9;
      }

      .cls-70 {
        fill: #fff;
      }

      .cls-71 {
        fill: #5e5e5e;
      }

      .cls-72 {
        fill: #1e1e1e;
      }

      .cls-73 {
        fill: #f0f0f0;
      }

      .cls-74 {
        fill: #383838;
      }

      .cls-75 {
        fill: #cdcdcd;
      }

      .cls-76 {
        fill: #131313;
      }

      .cls-77 {
        fill: #3c3c3c;
      }

      .cls-78 {
        fill: #a6a6a6;
      }

      .cls-12 {
        fill: url(#linear-gradient-7);
      }

      .cls-79 {
        fill: #6e6e6e;
      }

      .cls-80 {
        fill: #090909;
      }

      .cls-81 {
        fill: #424242;
      }

      .cls-82 {
        fill: #cecece;
      }

      .cls-83 {
        fill: #e9e9e9;
      }

      .cls-84 {
        fill: #5b5b5b;
      }

      .cls-85 {
        fill: #9b9b9b;
      }

      .cls-86 {
        fill: #606060;
      }

      .cls-87 {
        fill: #e1e1e1;
      }

      .cls-88 {
        fill: #050505;
      }

      .cls-89 {
        fill: #262626;
      }

      .cls-90 {
        fill: #535353;
      }

      .cls-91 {
        fill: #060606;
      }

      .cls-92 {
        fill: #4c4c4c;
      }

      .cls-13 {
        fill: url(#linear-gradient-8);
      }

      .cls-93 {
        fill: #303030;
      }

      .cls-94 {
        fill: #e2e2e2;
      }

      .cls-95 {
        fill: #8d8d8d;
      }

      .cls-14 {
        fill: url(#linear-gradient-6);
      }

      .cls-96 {
        fill: #e5e5e5;
      }

      .cls-97 {
        fill: #1c1c1c;
      }

      .cls-98 {
        fill: #b2b2b2;
      }

      .cls-99 {
        fill: #d5d5d5;
      }

      .cls-100 {
        fill: #6a6a6a;
      }

      .cls-101 {
        fill: #2f2f2f;
      }

      .cls-102 {
        fill: #fbfbfb;
      }

      .cls-103 {
        fill: #171717;
      }

      .cls-104 {
        fill: #e0e0e0;
      }

      .cls-105 {
        fill: #8e8e8e;
      }

      .cls-106 {
        fill: #f9f9f9;
      }

      .cls-107 {
        fill: #8a8a8a;
      }

      .cls-108 {
        fill: #f2f2f2;
      }

      .cls-109 {
        fill: #404040;
      }

      .cls-110 {
        fill: #bbb;
      }

      .cls-111 {
        fill: #a0a0a0;
      }

      .cls-112 {
        fill: #e3e3e3;
      }

      .cls-113 {
        fill: #737373;
      }

      .cls-114 {
        fill: #929292;
      }

      .cls-115 {
        fill: #3b3b3b;
      }

      .cls-116 {
        fill: #bdbdbd;
      }

      .cls-117 {
        fill: #1f1f1f;
      }

      .cls-118 {
        fill: #363636;
      }

      .cls-16 {
        fill: url(#radial-gradient);
      }

      .cls-119 {
        fill: #bfbfbf;
      }

      .cls-120 {
        fill: #282828;
      }

      .cls-121 {
        fill: #909090;
      }

      .cls-122 {
        fill: #636363;
      }

      .cls-123 {
        fill: #b0b0b0;
      }

      .cls-124 {
        fill: #d8d8d8;
      }

      .cls-125 {
        fill: #c4c4c4;
      }

      .cls-126 {
        fill: #3a3a3a;
      }

      .cls-127 {
        fill: #acacac;
      }

      .cls-128 {
        fill: #c8c8c8;
      }

      .cls-17 {
        fill: url(#linear-gradient-4);
      }

      .cls-129 {
        fill: #454545;
      }

      .cls-130 {
        fill: #6c6c6c;
      }

      .cls-131 {
        fill: #656565;
      }

      .cls-132 {
        fill: #373737;
      }

      .cls-133 {
        fill: #202020;
      }

      .cls-134 {
        fill: #f1f1f1;
      }

      .cls-135 {
        fill: #575757;
      }

      .cls-136 {
        fill: #212121;
      }

      .cls-137 {
        fill: #686868;
      }

      .cls-138 {
        fill: #666;
      }

      .cls-139 {
        fill: #dbdbdb;
      }

      .cls-140 {
        fill: #8c8c8c;
      }

      .cls-141 {
        fill: #444;
      }

      .cls-142 {
        fill: silver;
      }

      .cls-143 {
        fill: #d3d3d3;
      }

      .cls-144 {
        fill: #222;
      }

      .cls-145 {
        fill: #939393;
      }

      .cls-146 {
        fill: #878787;
      }

      .cls-147 {
        fill: #555;
      }

      .cls-148 {
        fill: #cbcbcb;
      }

      .cls-149 {
        fill: #2b2b2b;
      }

      .cls-150 {
        fill: #969696;
      }

      .cls-151 {
        fill: #030303;
      }

      .cls-152 {
        fill: #868686;
      }

      .cls-153 {
        fill: #6d6d6d;
      }

      .cls-154 {
        fill: #616161;
      }

      .cls-155 {
        fill: #0d0d0d;
      }

      .cls-156 {
        fill: #ddd;
      }

      .cls-157 {
        fill: #333;
      }

      .cls-158 {
        fill: #717171;
      }

      .cls-159 {
        fill: #474747;
      }

      .cls-160 {
        fill: #c5c5c5;
      }

      .cls-18 {
        fill: url(#linear-gradient);
      }

      .cls-161 {
        fill: #efefef;
      }

      .cls-162 {
        fill: #0f0f0f;
      }

      .cls-163 {
        fill: #595959;
      }

      .cls-164 {
        fill: #1a1a1a;
      }

      .cls-165 {
        fill: #1d1d1d;
      }

      .cls-166 {
        fill: #0e0e0e;
      }

      .cls-167 {
        fill: #dfdfdf;
      }

      .cls-168 {
        opacity: .3;
      }

      .cls-169 {
        fill: #eee;
      }

      .cls-170 {
        fill: #999;
      }

      .cls-171 {
        fill: #747474;
      }

      .cls-172 {
        fill: #a8a8a8;
      }

      .cls-173 {
        fill: #1b1b1b;
      }

      .cls-174 {
        fill: #191919;
      }

      .cls-175 {
        fill: #0b0b0b;
      }

      .cls-176 {
        fill: #515151;
      }

      .cls-177 {
        fill: #9e9e9e;
      }

      .cls-178 {
        fill: #d0d0d0;
      }

      .cls-179 {
        fill: #919191;
      }

      .cls-180 {
        fill: #d6d6d6;
      }

      .cls-181 {
        fill: #858585;
      }

      .cls-182 {
        fill: #232323;
      }

      .cls-183 {
        fill: #b4b4b4;
      }

      .cls-184 {
        fill: #888;
      }

      .cls-185 {
        fill: #ebebeb;
      }

      .cls-186 {
        fill: #484848;
      }

      .cls-187 {
        fill: #c7c7c7;
      }

      .cls-188 {
        fill: #464646;
      }

      .cls-189 {
        fill: #dedede;
      }

      .cls-190 {
        fill: #cfcfcf;
      }

      .cls-191 {
        fill: #ccc;
      }

      .cls-192 {
        fill: #f4f4f4;
      }

      .cls-193 {
        fill: #b3b3b3;
      }

      .cls-194 {
        fill: #828282;
      }

      .cls-195 {
        fill: #696969;
      }

      .cls-196 {
        fill: #545454;
      }

      .cls-197 {
        fill: #a5a5a5;
      }

      .cls-198 {
        fill: #c1c1c1;
      }

      .cls-199 {
        fill: #6b6b6b;
      }

      .cls-200 {
        fill: #f5f5f5;
      }

      .cls-201 {
        fill: #353535;
      }

      .cls-202 {
        fill: #a9a9a9;
      }

      .cls-203 {
        fill: #b9b9b9;
      }

      .cls-204 {
        fill: #aeaeae;
      }

      .cls-205 {
        fill: #393939;
      }

      .cls-206 {
        fill: #959595;
      }

      .cls-207 {
        fill: #949494;
      }

      .cls-208 {
        fill: #979797;
      }

      .cls-209 {
        fill: #292929;
      }

      .cls-210 {
        fill: #a3a3a3;
      }

      .cls-211 {
        fill: #ababab;
      }

      .cls-212 {
        fill: #aaa;
      }

      .cls-213 {
        fill: gray;
      }

      .cls-214 {
        fill: #7f7f7f;
      }

      .cls-215 {
        fill: #565656;
      }

      .cls-216 {
        fill: #c6c6c6;
      }

      .cls-217 {
        fill: #dcdcdc;
      }

      .cls-218 {
        fill: #0a0a0a;
      }

      .cls-219 {
        fill: #b6b6b6;
      }

      .cls-220 {
        fill: #4b4b4b;
      }

      .cls-221 {
        fill: #dadada;
      }

      .cls-222 {
        fill: #e4e4e4;
      }

      .cls-223 {
        fill: #5d5d5d;
      }

      .cls-224 {
        fill: #adadad;
      }

      .cls-225 {
        fill: #ececec;
      }

      .cls-226 {
        fill: #151515;
      }

      .cls-227 {
        fill: #bcbcbc;
      }

      .cls-228 {
        fill: #fefefe;
      }

      .cls-229 {
        fill: #040404;
      }

      .cls-230 {
        fill: #e7e7e7;
      }

      .cls-231 {
        fill: #ededed;
      }

      .cls-232 {
        fill: #d4d4d4;
      }

      .cls-233 {
        fill: #b7b7b7;
      }

      .cls-234 {
        fill: #a1a1a1;
      }

      .cls-235 {
        fill: #3d3d3d;
      }

      .cls-236 {
        fill: #fafafa;
      }

      .cls-237 {
        fill: #d2d2d2;
      }

      .cls-238 {
        fill: #070707;
      }

      .cls-239 {
        fill: #eaeaea;
      }

      .cls-240 {
        fill: #f8f8f8;
      }

      .cls-241 {
        fill: #242424;
      }

      .cls-242 {
        fill: #7a7a7a;
      }

      .cls-243 {
        fill: #d1d1d1;
      }

      .cls-244 {
        fill: #9d9d9d;
      }

      .cls-245 {
        fill: #676767;
      }

      .cls-246 {
        fill: #343434;
      }

      .cls-247 {
        fill: #101010;
      }

      .cls-248 {
        fill: #d9d9d9;
      }

      .cls-249 {
        fill: #f7f7f7;
      }

      .cls-250 {
        fill: #787878;
      }

      .cls-251 {
        fill: #bebebe;
      }

      .cls-252 {
        fill: #fdfdfd;
      }

      .cls-253 {
        fill: #323232;
      }

      .cls-254 {
        fill: #707070;
      }

      .cls-255 {
        fill: #5c5c5c;
      }

      .cls-256 {
        fill: #414141;
      }

      .cls-257 {
        fill: #818181;
      }

      .cls-258 {
        fill: #161616;
      }

      .cls-259 {
        fill: #b5b5b5;
      }

      .cls-260 {
        fill: #2e2e2e;
      }

      .cls-261 {
        fill: #f3f3f3;
      }

      .cls-262 {
        fill: #e8e8e8;
      }

      .cls-263 {
        fill: #e6e6e6;
      }

      .cls-264 {
        fill: #989898;
      }

      .cls-265 {
        fill: #afafaf;
      }

      .cls-266 {
        fill: #a2a2a2;
      }
    </style>
    <radialGradient id="radial-gradient" cx="211.1" cy="-704.1" fx="211.1" fy="-704.1" r="99.1" gradientTransform="translate(0 -304) scale(1 -1)" gradientUnits="userSpaceOnUse">
      <stop offset="0" stop-color="#00a651"/>
      <stop offset="1" stop-color="#8dc63f"/>
    </radialGradient>
    <linearGradient id="linear-gradient" x1="107.2" y1="-372.6" x2="171.7" y2="-372.6" gradientTransform="translate(0 -304) scale(1 -1)" gradientUnits="userSpaceOnUse">
      <stop offset="0" stop-color="#1d70b7"/>
      <stop offset="1" stop-color="#008d36"/>
    </linearGradient>
    <linearGradient id="linear-gradient-2" x1="124.4" y1="-383" x2="217.8" y2="-383" gradientTransform="translate(0 -304) scale(1 -1)" gradientUnits="userSpaceOnUse">
      <stop offset="0" stop-color="#1d70b7"/>
      <stop offset="1" stop-color="#008d36"/>
    </linearGradient>
    <linearGradient id="linear-gradient-3" x1="317.5" y1="-177.5" x2="468" y2="-177.5" gradientTransform="translate(-167.3 -93.1) rotate(6.1) scale(1 -1)" gradientUnits="userSpaceOnUse">
      <stop offset="0" stop-color="#1d70b7"/>
      <stop offset="1" stop-color="#008d36"/>
    </linearGradient>
    <linearGradient id="linear-gradient-4" x1="-978.6" y1="-1222.9" x2="-839.5" y2="-1222.9" gradientTransform="translate(409.7 -1360.1) rotate(-24) scale(1 -1)" gradientUnits="userSpaceOnUse">
      <stop offset="0" stop-color="#1d70b7"/>
      <stop offset="1" stop-color="#008d36"/>
    </linearGradient>
    <linearGradient id="linear-gradient-5" x1="61.2" y1="-383" x2="151.9" y2="-383" gradientTransform="translate(0 -304) scale(1 -1)" gradientUnits="userSpaceOnUse">
      <stop offset="0" stop-color="#1d70b7"/>
      <stop offset="1" stop-color="#008d36"/>
    </linearGradient>
    <linearGradient id="linear-gradient-6" x1="-4535.5" y1="3220.4" x2="-4471" y2="3220.4" gradientTransform="translate(-4363.2 -3038.1) rotate(-180) scale(1 -1)" gradientUnits="userSpaceOnUse">
      <stop offset="0" stop-color="#1d70b7"/>
      <stop offset="1" stop-color="#008d36"/>
    </linearGradient>
    <linearGradient id="linear-gradient-7" x1="-4518.3" y1="3210.1" x2="-4424.9" y2="3210.1" gradientTransform="translate(-4363.2 -3038.1) rotate(-180) scale(1 -1)" gradientUnits="userSpaceOnUse">
      <stop offset="0" stop-color="#1d70b7"/>
      <stop offset="1" stop-color="#008d36"/>
    </linearGradient>
    <linearGradient id="linear-gradient-8" x1="-4581.5" y1="3210" x2="-4490.9" y2="3210" gradientTransform="translate(-4363.2 -3038.1) rotate(-180) scale(1 -1)" gradientUnits="userSpaceOnUse">
      <stop offset="0" stop-color="#1d70b7"/>
      <stop offset="1" stop-color="#008d36"/>
    </linearGradient>
  </defs>
  <!-- Generator: Adobe Illustrator 28.7.1, SVG Export Plug-In . SVG Version: 1.2.0 Build 142)  -->
  <g>
    <g id="Layer_1">
      <g class="cls-15">
        <g id="Layer_1-2">
          <g>
            <g class="cls-168">
              <path class="cls-70" d="M234.2,289.3c0,11.1-42.1,20-94.1,20s-94.1-8.9-94.1-20,42.2-20,94.1-20,94.1,9,94.1,20h0Z"/>
              <path class="cls-228" d="M233.9,289.3c0,11.1-42,20-93.8,20s-93.8-8.9-93.8-20,42-19.9,93.8-19.9,93.8,8.9,93.8,19.9Z"/>
              <path class="cls-252" d="M233.6,289.3c0,11-41.9,19.9-93.6,19.9s-93.5-8.9-93.5-19.9,41.9-19.8,93.5-19.8,93.6,8.9,93.6,19.8Z"/>
              <path class="cls-38" d="M233.3,289.3c0,11-41.8,19.8-93.3,19.8s-93.3-8.8-93.3-19.8,41.8-19.8,93.3-19.8,93.3,8.9,93.3,19.8Z"/>
              <path class="cls-102" d="M233,289.3c0,11-41.6,19.8-93,19.8s-93-8.8-93-19.8,41.7-19.7,93-19.7,93,8.8,93,19.7Z"/>
              <path class="cls-236" d="M232.8,289.3c0,10.9-41.5,19.7-92.7,19.7s-92.7-8.8-92.7-19.7,41.5-19.7,92.7-19.7,92.7,8.8,92.7,19.7Z"/>
              <path class="cls-106" d="M232.5,289.3c0,10.9-41.4,19.7-92.4,19.7s-92.4-8.8-92.4-19.7,41.4-19.6,92.4-19.6,92.4,8.8,92.4,19.6Z"/>
              <path class="cls-240" d="M232.2,289.3c0,10.9-41.2,19.6-92.2,19.6s-92.1-8.7-92.1-19.6,41.3-19.5,92.1-19.5,92.2,8.8,92.2,19.5Z"/>
              <path class="cls-249" d="M231.9,289.3c0,10.8-41.1,19.5-91.9,19.5s-91.9-8.7-91.9-19.5,41.2-19.5,91.9-19.5,91.9,8.7,91.9,19.5Z"/>
              <path class="cls-49" d="M231.6,289.3c0,10.8-41,19.5-91.6,19.5s-91.6-8.7-91.6-19.5,41-19.4,91.6-19.4,91.6,8.7,91.6,19.4h0Z"/>
              <path class="cls-200" d="M231.4,289.3c0,10.8-40.9,19.4-91.3,19.4s-91.3-8.7-91.3-19.4,40.9-19.4,91.3-19.4,91.3,8.7,91.3,19.4Z"/>
              <path class="cls-192" d="M231.1,289.3c0,10.7-40.8,19.4-91,19.4s-91-8.6-91-19.4,40.8-19.3,91-19.3,91,8.7,91,19.3Z"/>
              <path class="cls-261" d="M230.8,289.3c0,10.7-40.6,19.3-90.8,19.3s-90.8-8.6-90.8-19.3,40.6-19.3,90.8-19.3,90.8,8.6,90.8,19.3h0Z"/>
              <path class="cls-108" d="M230.5,289.3c0,10.7-40.5,19.3-90.5,19.3s-90.5-8.6-90.5-19.3,40.5-19.2,90.5-19.2,90.5,8.6,90.5,19.2Z"/>
              <path class="cls-134" d="M230.2,289.2c0,10.6-40.4,19.2-90.2,19.2s-90.2-8.6-90.2-19.2,40.4-19.1,90.2-19.1,90.2,8.6,90.2,19.1h0Z"/>
              <path class="cls-73" d="M230,289.2c0,10.6-40.3,19.1-89.9,19.1s-89.9-8.5-89.9-19.1,40.3-19.1,89.9-19.1,89.9,8.6,89.9,19.1Z"/>
              <path class="cls-161" d="M229.7,289.2c0,10.6-40.1,19.1-89.6,19.1s-89.6-8.5-89.6-19.1,40.1-19,89.6-19,89.6,8.5,89.6,19Z"/>
              <path class="cls-169" d="M229.4,289.2c0,10.5-40,19-89.4,19s-89.4-8.5-89.4-19,40-19,89.4-19,89.4,8.5,89.4,19Z"/>
              <path class="cls-231" d="M229.1,289.2c0,10.5-39.9,19-89.1,19s-89.1-8.5-89.1-19,39.9-18.9,89.1-18.9,89.1,8.5,89.1,18.9h0Z"/>
              <path class="cls-225" d="M228.8,289.2c0,10.5-39.8,18.9-88.8,18.9s-88.8-8.4-88.8-18.9,39.8-18.8,88.8-18.8,88.8,8.4,88.8,18.8Z"/>
              <path class="cls-185" d="M228.6,289.2c0,10.4-39.6,18.8-88.5,18.8s-88.5-8.4-88.5-18.8,39.6-18.8,88.5-18.8,88.5,8.4,88.5,18.8Z"/>
              <path class="cls-239" d="M228.3,289.2c0,10.4-39.5,18.8-88.3,18.8s-88.2-8.4-88.2-18.8,39.5-18.7,88.2-18.7,88.3,8.4,88.3,18.7Z"/>
              <path class="cls-83" d="M228,289.2c0,10.4-39.4,18.7-88,18.7s-88-8.3-88-18.7,39.4-18.7,88-18.7,88,8.4,88,18.7Z"/>
              <path class="cls-262" d="M227.7,289.2c0,10.3-39.3,18.7-87.7,18.7s-87.7-8.3-87.7-18.7,39.3-18.6,87.7-18.6,87.7,8.3,87.7,18.6h0Z"/>
              <path class="cls-230" d="M227.5,289.2c0,10.3-39.1,18.6-87.4,18.6s-87.4-8.3-87.4-18.6,39.1-18.5,87.4-18.5,87.4,8.3,87.4,18.5Z"/>
              <path class="cls-263" d="M227.2,289.2c0,10.3-39,18.5-87.1,18.5s-87.1-8.3-87.1-18.5,39-18.5,87.1-18.5,87.1,8.3,87.1,18.5Z"/>
              <path class="cls-96" d="M226.9,289.2c0,10.2-38.9,18.5-86.9,18.5s-86.8-8.2-86.8-18.5,38.9-18.4,86.8-18.4,86.9,8.3,86.9,18.4Z"/>
              <path class="cls-222" d="M226.6,289.2c0,10.2-38.8,18.4-86.6,18.4s-86.6-8.2-86.6-18.4,38.8-18.4,86.6-18.4,86.6,8.2,86.6,18.4Z"/>
              <path class="cls-112" d="M226.3,289.2c0,10.2-38.6,18.4-86.3,18.4s-86.3-8.2-86.3-18.4,38.7-18.3,86.3-18.3,86.3,8.2,86.3,18.3Z"/>
              <path class="cls-94" d="M226.1,289.2c0,10.1-38.5,18.3-86,18.3s-86-8.2-86-18.3,38.5-18.2,86-18.2,86,8.2,86,18.2Z"/>
              <path class="cls-87" d="M225.8,289.1c0,10.1-38.4,18.2-85.7,18.2s-85.7-8.1-85.7-18.2,38.4-18.2,85.7-18.2,85.7,8.2,85.7,18.2Z"/>
              <path class="cls-104" d="M225.5,289.1c0,10.1-38.3,18.2-85.5,18.2s-85.4-8.1-85.4-18.2,38.3-18.1,85.4-18.1,85.5,8.1,85.5,18.1Z"/>
              <path class="cls-167" d="M225.2,289.1c0,10-38.1,18.1-85.2,18.1s-85.2-8.1-85.2-18.1,38.1-18.1,85.2-18.1,85.2,8.1,85.2,18.1Z"/>
              <path class="cls-189" d="M224.9,289.1c0,10-38,18.1-84.9,18.1s-84.9-8.1-84.9-18.1,38-18,84.9-18,84.9,8.1,84.9,18Z"/>
              <path class="cls-156" d="M224.7,289.1c0,10-37.9,18-84.6,18s-84.6-8-84.6-18,37.9-17.9,84.6-17.9,84.6,8,84.6,17.9Z"/>
              <path class="cls-217" d="M224.4,289.1c0,9.9-37.7,17.9-84.3,17.9s-84.3-8-84.3-17.9,37.8-17.9,84.3-17.9,84.3,8,84.3,17.9h0Z"/>
              <path class="cls-139" d="M224.1,289.1c0,9.9-37.6,17.9-84.1,17.9s-84-8-84-17.9,37.6-17.8,84-17.8,84.1,8,84.1,17.8Z"/>
              <path class="cls-221" d="M223.8,289.1c0,9.9-37.5,17.8-83.8,17.8s-83.8-8-83.8-17.8,37.5-17.8,83.8-17.8,83.8,8,83.8,17.8h0Z"/>
              <path class="cls-248" d="M223.5,289.1c0,9.8-37.4,17.8-83.5,17.8s-83.5-7.9-83.5-17.8,37.4-17.7,83.5-17.7,83.5,7.9,83.5,17.7Z"/>
              <path class="cls-124" d="M223.3,289.1c0,9.8-37.2,17.7-83.2,17.7s-83.2-7.9-83.2-17.7,37.3-17.7,83.2-17.7,83.2,7.9,83.2,17.7h0Z"/>
              <path class="cls-42" d="M223,289.1c0,9.8-37.1,17.6-82.9,17.6s-82.9-7.9-82.9-17.6,37.1-17.6,82.9-17.6,82.9,7.9,82.9,17.6Z"/>
              <path class="cls-180" d="M222.7,289.1c0,9.7-37,17.6-82.7,17.6s-82.6-7.8-82.6-17.6,37-17.5,82.6-17.5,82.7,7.9,82.7,17.5h0Z"/>
              <path class="cls-99" d="M222.4,289.1c0,9.7-36.9,17.5-82.4,17.5s-82.4-7.8-82.4-17.5,36.9-17.5,82.4-17.5,82.4,7.8,82.4,17.5Z"/>
              <path class="cls-232" d="M222.1,289.1c0,9.7-36.8,17.5-82.1,17.5s-82.1-7.8-82.1-17.5,36.8-17.4,82.1-17.4,82.1,7.8,82.1,17.4Z"/>
              <path class="cls-143" d="M221.9,289.1c0,9.6-36.6,17.4-81.8,17.4s-81.8-7.8-81.8-17.4,36.6-17.4,81.8-17.4,81.8,7.8,81.8,17.4Z"/>
              <path class="cls-237" d="M221.6,289.1c0,9.6-36.5,17.4-81.5,17.4s-81.5-7.7-81.5-17.4,36.5-17.3,81.5-17.3,81.5,7.8,81.5,17.3h0Z"/>
              <path class="cls-243" d="M221.3,289c0,9.6-36.4,17.3-81.3,17.3s-81.3-7.7-81.3-17.3,36.4-17.2,81.3-17.2,81.3,7.7,81.3,17.2h0Z"/>
              <path class="cls-178" d="M221,289c0,9.5-36.3,17.2-81,17.2s-81-7.7-81-17.2,36.3-17.2,81-17.2,81,7.7,81,17.2Z"/>
              <path class="cls-190" d="M220.7,289c0,9.5-36.1,17.2-80.7,17.2s-80.7-7.7-80.7-17.2,36.1-17.1,80.7-17.1,80.7,7.7,80.7,17.1h0Z"/>
              <path class="cls-82" d="M220.5,289c0,9.5-36,17.1-80.4,17.1s-80.4-7.6-80.4-17.1,36-17.1,80.4-17.1,80.4,7.6,80.4,17.1Z"/>
              <path class="cls-75" d="M220.2,289c0,9.4-35.9,17.1-80.2,17.1s-80.1-7.6-80.1-17.1,35.9-17,80.1-17,80.2,7.6,80.2,17h0Z"/>
              <path class="cls-191" d="M219.9,289c0,9.4-35.7,17-79.9,17s-79.9-7.6-79.9-17,35.8-16.9,79.9-16.9,79.9,7.6,79.9,16.9Z"/>
              <path class="cls-148" d="M219.6,289c0,9.4-35.6,16.9-79.6,16.9s-79.6-7.6-79.6-16.9,35.6-16.9,79.6-16.9,79.6,7.6,79.6,16.9Z"/>
              <path class="cls-25" d="M219.4,289c0,9.3-35.5,16.9-79.3,16.9s-79.3-7.5-79.3-16.9,35.5-16.8,79.3-16.8,79.3,7.5,79.3,16.8Z"/>
              <path class="cls-69" d="M219.1,289c0,9.3-35.4,16.8-79,16.8s-79-7.5-79-16.8,35.4-16.8,79-16.8,79,7.5,79,16.8Z"/>
              <path class="cls-128" d="M218.8,289c0,9.3-35.2,16.8-78.8,16.8s-78.7-7.5-78.7-16.8,35.3-16.7,78.7-16.7,78.8,7.5,78.8,16.7Z"/>
              <path class="cls-187" d="M218.5,289c0,9.2-35.1,16.7-78.5,16.7s-78.5-7.5-78.5-16.7,35.1-16.6,78.5-16.6,78.5,7.5,78.5,16.6Z"/>
              <path class="cls-216" d="M218.2,289c0,9.2-35,16.6-78.2,16.6s-78.2-7.4-78.2-16.6,35-16.6,78.2-16.6,78.2,7.4,78.2,16.6h0Z"/>
              <path class="cls-160" d="M218,289c0,9.2-34.9,16.6-77.9,16.6s-77.9-7.4-77.9-16.6,34.9-16.5,77.9-16.5,77.9,7.4,77.9,16.5Z"/>
              <path class="cls-125" d="M217.7,289c0,9.1-34.7,16.5-77.6,16.5s-77.6-7.4-77.6-16.5,34.8-16.5,77.6-16.5,77.6,7.4,77.6,16.5h0Z"/>
              <path class="cls-35" d="M217.4,289c0,9.1-34.6,16.5-77.4,16.5s-77.3-7.3-77.3-16.5,34.6-16.4,77.3-16.4,77.4,7.4,77.4,16.4Z"/>
              <path class="cls-54" d="M217.1,289c0,9.1-34.5,16.4-77.1,16.4s-77.1-7.3-77.1-16.4,34.5-16.3,77.1-16.3,77.1,7.3,77.1,16.3Z"/>
              <path class="cls-198" d="M216.8,289c0,9-34.4,16.3-76.8,16.3s-76.8-7.3-76.8-16.3,34.4-16.3,76.8-16.3,76.8,7.3,76.8,16.3Z"/>
              <path class="cls-142" d="M216.6,288.9c0,9-34.2,16.3-76.5,16.3s-76.5-7.3-76.5-16.3,34.3-16.2,76.5-16.2,76.5,7.3,76.5,16.2Z"/>
              <path class="cls-119" d="M216.3,288.9c0,9-34.1,16.2-76.2,16.2s-76.2-7.2-76.2-16.2,34.1-16.2,76.2-16.2,76.2,7.2,76.2,16.2h0Z"/>
              <path class="cls-251" d="M216,288.9c0,8.9-34,16.2-76,16.2s-75.9-7.2-75.9-16.2,34-16.1,75.9-16.1,76,7.2,76,16.1Z"/>
              <path class="cls-116" d="M215.7,288.9c0,8.9-33.9,16.1-75.7,16.1s-75.7-7.2-75.7-16.1,33.9-16,75.7-16,75.7,7.2,75.7,16Z"/>
              <path class="cls-227" d="M215.4,288.9c0,8.9-33.8,16-75.4,16s-75.4-7.2-75.4-16,33.8-16,75.4-16,75.4,7.2,75.4,16Z"/>
              <path class="cls-110" d="M215.2,288.9c0,8.9-33.6,16-75.1,16s-75.1-7.1-75.1-16,33.6-15.9,75.1-15.9,75.1,7.1,75.1,15.9h0Z"/>
              <path class="cls-62" d="M214.9,288.9c0,8.8-33.5,15.9-74.8,15.9s-74.8-7.1-74.8-15.9,33.5-15.9,74.8-15.9,74.8,7.1,74.8,15.9Z"/>
              <path class="cls-203" d="M214.6,288.9c0,8.8-33.4,15.9-74.6,15.9s-74.5-7.1-74.5-15.9,33.4-15.8,74.5-15.8,74.6,7.1,74.6,15.8Z"/>
              <path class="cls-41" d="M214.3,288.9c0,8.7-33.3,15.8-74.3,15.8s-74.3-7.1-74.3-15.8,33.3-15.8,74.3-15.8,74.3,7.1,74.3,15.8Z"/>
              <path class="cls-233" d="M214,288.9c0,8.7-33.1,15.7-74,15.7s-74-7-74-15.7,33.1-15.7,74-15.7,74,7,74,15.7Z"/>
              <path class="cls-219" d="M213.8,288.9c0,8.7-33,15.7-73.7,15.7s-73.7-7-73.7-15.7,33-15.6,73.7-15.6,73.7,7,73.7,15.6h0Z"/>
              <path class="cls-259" d="M213.5,288.9c0,8.7-32.9,15.6-73.4,15.6s-73.4-7-73.4-15.6,32.9-15.6,73.4-15.6,73.4,7,73.4,15.6Z"/>
              <path class="cls-183" d="M213.2,288.9c0,8.6-32.8,15.6-73.2,15.6s-73.2-7-73.2-15.6,32.8-15.5,73.2-15.5,73.2,7,73.2,15.5Z"/>
              <path class="cls-193" d="M212.9,288.9c0,8.6-32.6,15.5-72.9,15.5s-72.9-6.9-72.9-15.5,32.6-15.5,72.9-15.5,72.9,6.9,72.9,15.5Z"/>
              <path class="cls-98" d="M212.7,288.9c0,8.6-32.5,15.5-72.6,15.5s-72.6-6.9-72.6-15.5,32.5-15.4,72.6-15.4,72.6,6.9,72.6,15.4Z"/>
              <path class="cls-43" d="M212.4,288.9c0,8.5-32.4,15.4-72.3,15.4s-72.3-6.9-72.3-15.4,32.4-15.3,72.3-15.3,72.3,6.9,72.3,15.3Z"/>
              <path class="cls-123" d="M212.1,288.8c0,8.5-32.2,15.3-72.1,15.3s-72-6.8-72-15.3,32.3-15.3,72-15.3,72.1,6.8,72.1,15.3Z"/>
              <path class="cls-265" d="M211.8,288.8c0,8.5-32.1,15.3-71.8,15.3s-71.8-6.8-71.8-15.3,32.1-15.2,71.8-15.2,71.8,6.8,71.8,15.2Z"/>
              <path class="cls-204" d="M211.5,288.8c0,8.4-32,15.2-71.5,15.2s-71.5-6.8-71.5-15.2,32-15.2,71.5-15.2,71.5,6.8,71.5,15.2Z"/>
              <path class="cls-224" d="M211.3,288.8c0,8.4-31.9,15.2-71.2,15.2s-71.2-6.8-71.2-15.2,31.9-15.1,71.2-15.1,71.2,6.8,71.2,15.1h0Z"/>
              <path class="cls-127" d="M211,288.8c0,8.4-31.7,15.1-70.9,15.1s-70.9-6.7-70.9-15.1,31.8-15,70.9-15,70.9,6.7,70.9,15Z"/>
              <path class="cls-211" d="M210.7,288.8c0,8.3-31.6,15-70.7,15s-70.6-6.7-70.6-15,31.6-15,70.6-15,70.7,6.7,70.7,15Z"/>
              <path class="cls-212" d="M210.4,288.8c0,8.3-31.5,15-70.4,15s-70.4-6.7-70.4-15,31.5-14.9,70.4-14.9,70.4,6.7,70.4,14.9Z"/>
              <path class="cls-202" d="M210.1,288.8c0,8.3-31.4,14.9-70.1,14.9s-70.1-6.7-70.1-14.9,31.4-14.9,70.1-14.9,70.1,6.7,70.1,14.9Z"/>
              <path class="cls-172" d="M209.9,288.8c0,8.2-31.2,14.9-69.8,14.9s-69.8-6.6-69.8-14.9,31.3-14.8,69.8-14.8,69.8,6.6,69.8,14.8h0Z"/>
              <path class="cls-44" d="M209.6,288.8c0,8.2-31.1,14.8-69.5,14.8s-69.5-6.6-69.5-14.8,31.1-14.7,69.5-14.7,69.5,6.6,69.5,14.7Z"/>
              <path class="cls-78" d="M209.3,288.8c0,8.2-31,14.7-69.3,14.7s-69.2-6.6-69.2-14.7,31-14.7,69.2-14.7,69.3,6.6,69.3,14.7Z"/>
              <path class="cls-197" d="M209,288.8c0,8.1-30.9,14.7-69,14.7s-69-6.6-69-14.7,30.9-14.6,69-14.6,69,6.6,69,14.6Z"/>
              <path class="cls-68" d="M208.7,288.8c0,8.1-30.8,14.6-68.7,14.6s-68.7-6.5-68.7-14.6,30.8-14.6,68.7-14.6,68.7,6.5,68.7,14.6h0Z"/>
              <path class="cls-210" d="M208.5,288.8c0,8.1-30.6,14.6-68.4,14.6s-68.4-6.5-68.4-14.6,30.6-14.5,68.4-14.5,68.4,6.5,68.4,14.5Z"/>
              <path class="cls-266" d="M208.2,288.8c0,8-30.5,14.5-68.1,14.5s-68.1-6.5-68.1-14.5,30.5-14.4,68.1-14.4,68.1,6.5,68.1,14.4Z"/>
              <path class="cls-234" d="M207.9,288.8c0,8-30.4,14.4-67.9,14.4s-67.8-6.5-67.8-14.4,30.4-14.4,67.8-14.4,67.9,6.4,67.9,14.4h0Z"/>
              <path class="cls-111" d="M207.6,288.8c0,8-30.2,14.4-67.6,14.4s-67.6-6.4-67.6-14.4,30.3-14.3,67.6-14.3,67.6,6.4,67.6,14.3Z"/>
              <path class="cls-59" d="M207.3,288.7c0,7.9-30.1,14.3-67.3,14.3s-67.3-6.4-67.3-14.3,30.1-14.3,67.3-14.3,67.3,6.4,67.3,14.3h0Z"/>
              <path class="cls-177" d="M207.1,288.7c0,7.9-30,14.3-67,14.3s-67-6.4-67-14.3,30-14.2,67-14.2,67,6.4,67,14.2Z"/>
              <path class="cls-244" d="M206.8,288.7c0,7.9-29.9,14.2-66.7,14.2s-66.7-6.3-66.7-14.2,29.9-14.2,66.7-14.2,66.7,6.3,66.7,14.2Z"/>
              <path class="cls-30" d="M206.5,288.7c0,7.8-29.7,14.1-66.5,14.1s-66.4-6.3-66.4-14.1,29.8-14.1,66.4-14.1,66.5,6.3,66.5,14.1Z"/>
              <path class="cls-85" d="M206.2,288.7c0,7.8-29.6,14.1-66.2,14.1s-66.2-6.3-66.2-14.1,29.6-14,66.2-14,66.2,6.3,66.2,14h0Z"/>
              <path class="cls-37" d="M205.9,288.7c0,7.8-29.5,14-65.9,14s-65.9-6.3-65.9-14,29.5-14,65.9-14,65.9,6.3,65.9,14Z"/>
              <path class="cls-170" d="M205.7,288.7c0,7.7-29.4,14-65.6,14s-65.6-6.2-65.6-14,29.4-13.9,65.6-13.9,65.6,6.2,65.6,13.9Z"/>
              <path class="cls-264" d="M205.4,288.7c0,7.7-29.2,13.9-65.3,13.9s-65.3-6.2-65.3-13.9,29.3-13.9,65.3-13.9,65.3,6.2,65.3,13.9Z"/>
              <path class="cls-208" d="M205.1,288.7c0,7.7-29.1,13.8-65.1,13.8s-65-6.2-65-13.8,29.1-13.8,65-13.8,65.1,6.2,65.1,13.8Z"/>
              <path class="cls-150" d="M204.8,288.7c0,7.6-29,13.8-64.8,13.8s-64.8-6.2-64.8-13.8,29-13.7,64.8-13.7,64.8,6.2,64.8,13.7Z"/>
              <path class="cls-206" d="M204.6,288.7c0,7.6-28.9,13.7-64.5,13.7s-64.5-6.1-64.5-13.7,28.9-13.7,64.5-13.7,64.5,6.1,64.5,13.7Z"/>
              <path class="cls-207" d="M204.3,288.7c0,7.6-28.7,13.7-64.2,13.7s-64.2-6.1-64.2-13.7,28.8-13.6,64.2-13.6,64.2,6.1,64.2,13.6Z"/>
              <path class="cls-145" d="M204,288.7c0,7.5-28.6,13.6-64,13.6s-63.9-6.1-63.9-13.6,28.6-13.6,63.9-13.6,64,6.1,64,13.6Z"/>
              <path class="cls-114" d="M203.7,288.7c0,7.5-28.5,13.6-63.7,13.6s-63.6-6.1-63.6-13.6,28.5-13.5,63.6-13.5,63.7,6,63.7,13.5Z"/>
              <path class="cls-179" d="M203.4,288.7c0,7.5-28.4,13.5-63.4,13.5s-63.4-6-63.4-13.5,28.4-13.4,63.4-13.4,63.4,6,63.4,13.4Z"/>
              <path class="cls-121" d="M203.2,288.7c0,7.4-28.2,13.4-63.1,13.4s-63.1-6-63.1-13.4,28.3-13.4,63.1-13.4,63.1,6,63.1,13.4Z"/>
              <path class="cls-64" d="M202.9,288.6c0,7.4-28.1,13.4-62.8,13.4s-62.8-6-62.8-13.4,28.1-13.3,62.8-13.3,62.8,6,62.8,13.3Z"/>
              <path class="cls-105" d="M202.6,288.6c0,7.4-28,13.3-62.6,13.3s-62.5-6-62.5-13.3,28-13.3,62.5-13.3,62.6,5.9,62.6,13.3Z"/>
              <path class="cls-95" d="M202.3,288.6c0,7.3-27.9,13.3-62.3,13.3s-62.3-5.9-62.3-13.3,27.9-13.2,62.3-13.2,62.3,5.9,62.3,13.2h0Z"/>
              <path class="cls-140" d="M202,288.6c0,7.3-27.7,13.2-62,13.2s-62-5.9-62-13.2,27.8-13.1,62-13.1,62,5.9,62,13.1Z"/>
              <path class="cls-29" d="M201.8,288.6c0,7.3-27.6,13.1-61.7,13.1s-61.7-5.9-61.7-13.1,27.6-13.1,61.7-13.1,61.7,5.9,61.7,13.1Z"/>
              <path class="cls-107" d="M201.5,288.6c0,7.2-27.5,13.1-61.4,13.1s-61.4-5.9-61.4-13.1,27.5-13,61.4-13,61.4,5.8,61.4,13Z"/>
              <path class="cls-23" d="M201.2,288.6c0,7.2-27.4,13-61.2,13s-61.1-5.8-61.1-13,27.4-13,61.1-13,61.2,5.8,61.2,13Z"/>
              <path class="cls-184" d="M200.9,288.6c0,7.2-27.3,13-60.9,13s-60.9-5.8-60.9-13,27.3-12.9,60.9-12.9,60.9,5.8,60.9,12.9h0Z"/>
              <path class="cls-146" d="M200.6,288.6c0,7.1-27.1,12.9-60.6,12.9s-60.6-5.8-60.6-12.9,27.1-12.8,60.6-12.8,60.6,5.8,60.6,12.8Z"/>
              <path class="cls-152" d="M200.4,288.6c0,7.1-27,12.8-60.3,12.8s-60.3-5.7-60.3-12.8,27-12.8,60.3-12.8,60.3,5.7,60.3,12.8Z"/>
              <path class="cls-181" d="M200.1,288.6c0,7.1-26.9,12.8-60,12.8s-60-5.7-60-12.8,26.9-12.7,60-12.7,60,5.7,60,12.7Z"/>
              <path class="cls-46" d="M199.8,288.6c0,7-26.7,12.7-59.8,12.7s-59.7-5.7-59.7-12.7,26.8-12.7,59.7-12.7,59.8,5.7,59.8,12.7h0Z"/>
              <path class="cls-32" d="M199.5,288.6c0,7-26.6,12.7-59.5,12.7s-59.5-5.7-59.5-12.7,26.6-12.6,59.5-12.6,59.5,5.6,59.5,12.6Z"/>
              <path class="cls-194" d="M199.2,288.6c0,7-26.5,12.6-59.2,12.6s-59.2-5.6-59.2-12.6,26.5-12.6,59.2-12.6,59.2,5.6,59.2,12.6Z"/>
              <path class="cls-257" d="M199,288.6c0,6.9-26.4,12.5-58.9,12.5s-58.9-5.6-58.9-12.5,26.4-12.5,58.9-12.5,58.9,5.6,58.9,12.5h0Z"/>
              <path class="cls-213" d="M198.7,288.6c0,6.9-26.2,12.5-58.6,12.5s-58.6-5.6-58.6-12.5,26.3-12.4,58.6-12.4,58.6,5.6,58.6,12.4h0Z"/>
              <path class="cls-214" d="M198.4,288.6c0,6.9-26.1,12.4-58.4,12.4s-58.3-5.6-58.3-12.4,26.1-12.4,58.3-12.4,58.4,5.5,58.4,12.4h0Z"/>
              <path class="cls-63" d="M198.1,288.5c0,6.8-26,12.4-58.1,12.4s-58.1-5.5-58.1-12.4,26-12.3,58.1-12.3,58.1,5.5,58.1,12.3Z"/>
              <path class="cls-47" d="M197.8,288.5c0,6.8-25.9,12.3-57.8,12.3s-57.8-5.5-57.8-12.3,25.9-12.3,57.8-12.3,57.8,5.5,57.8,12.3Z"/>
              <path class="cls-21" d="M197.6,288.5c0,6.8-25.7,12.2-57.5,12.2s-57.5-5.5-57.5-12.2,25.8-12.2,57.5-12.2,57.5,5.5,57.5,12.2Z"/>
              <path class="cls-24" d="M197.3,288.5c0,6.7-25.6,12.2-57.3,12.2s-57.2-5.5-57.2-12.2,25.6-12.1,57.2-12.1,57.3,5.4,57.3,12.1Z"/>
              <path class="cls-242" d="M197,288.5c0,6.7-25.5,12.1-57,12.1s-56.9-5.4-56.9-12.1,25.5-12.1,56.9-12.1,57,5.4,57,12.1Z"/>
              <path class="cls-31" d="M196.7,288.5c0,6.7-25.4,12.1-56.7,12.1s-56.7-5.4-56.7-12.1,25.4-12,56.7-12,56.7,5.4,56.7,12Z"/>
              <path class="cls-250" d="M196.5,288.5c0,6.6-25.2,12-56.4,12s-56.4-5.4-56.4-12,25.3-12,56.4-12,56.4,5.4,56.4,12Z"/>
              <path class="cls-39" d="M196.2,288.5c0,6.6-25.1,12-56.1,12s-56.1-5.4-56.1-12,25.1-11.9,56.1-11.9,56.1,5.3,56.1,11.9Z"/>
              <path class="cls-55" d="M195.9,288.5c0,6.6-25,11.9-55.9,11.9s-55.8-5.3-55.8-11.9,25-11.8,55.8-11.8,55.9,5.3,55.9,11.8Z"/>
              <path class="cls-2" d="M195.6,288.5c0,6.5-24.9,11.8-55.6,11.8s-55.5-5.3-55.5-11.8,24.9-11.8,55.5-11.8,55.6,5.3,55.6,11.8Z"/>
              <path class="cls-171" d="M195.3,288.5c0,6.5-24.7,11.8-55.3,11.8s-55.3-5.3-55.3-11.8,24.8-11.7,55.3-11.7,55.3,5.2,55.3,11.7Z"/>
              <path class="cls-113" d="M195.1,288.5c0,6.5-24.6,11.7-55,11.7s-55-5.2-55-11.7,24.6-11.7,55-11.7,55,5.2,55,11.7Z"/>
              <path class="cls-40" d="M194.8,288.5c0,6.4-24.5,11.7-54.7,11.7s-54.7-5.2-54.7-11.7,24.5-11.6,54.7-11.6,54.7,5.2,54.7,11.6Z"/>
              <path class="cls-158" d="M194.5,288.5c0,6.4-24.4,11.6-54.5,11.6s-54.4-5.2-54.4-11.6,24.4-11.5,54.4-11.5,54.5,5.2,54.5,11.5Z"/>
              <path class="cls-254" d="M194.2,288.5c0,6.4-24.2,11.5-54.2,11.5s-54.1-5.2-54.1-11.5,24.3-11.5,54.1-11.5,54.2,5.1,54.2,11.5Z"/>
              <path class="cls-1" d="M193.9,288.5c0,6.3-24.1,11.5-53.9,11.5s-53.9-5.1-53.9-11.5,24.1-11.4,53.9-11.4,53.9,5.1,53.9,11.4Z"/>
              <path class="cls-79" d="M193.7,288.5c0,6.3-24,11.4-53.6,11.4s-53.6-5.1-53.6-11.4,24-11.4,53.6-11.4,53.6,5.1,53.6,11.4Z"/>
              <path class="cls-153" d="M193.4,288.4c0,6.3-23.9,11.4-53.3,11.4s-53.3-5.1-53.3-11.4,23.9-11.3,53.3-11.3,53.3,5.1,53.3,11.3h0Z"/>
              <path class="cls-130" d="M193.1,288.4c0,6.2-23.7,11.3-53.1,11.3s-53-5.1-53-11.3,23.8-11.2,53-11.2,53.1,5,53.1,11.2Z"/>
              <path class="cls-199" d="M192.8,288.4c0,6.2-23.6,11.2-52.8,11.2s-52.8-5-52.8-11.2,23.6-11.2,52.8-11.2,52.8,5,52.8,11.2Z"/>
              <path class="cls-100" d="M192.5,288.4c0,6.2-23.5,11.2-52.5,11.2s-52.5-5-52.5-11.2,23.5-11.1,52.5-11.1,52.5,5,52.5,11.1Z"/>
              <path class="cls-195" d="M192.3,288.4c0,6.1-23.4,11.1-52.2,11.1s-52.2-5-52.2-11.1,23.4-11.1,52.2-11.1,52.2,5,52.2,11.1Z"/>
              <path class="cls-137" d="M192,288.4c0,6.1-23.2,11.1-51.9,11.1s-51.9-5-51.9-11.1,23.3-11,51.9-11,51.9,4.9,51.9,11h0Z"/>
              <path class="cls-245" d="M191.7,288.4c0,6.1-23.1,11-51.7,11s-51.6-4.9-51.6-11,23.1-11,51.6-11,51.7,4.9,51.7,11Z"/>
              <path class="cls-138" d="M191.4,288.4c0,6-23,10.9-51.4,10.9s-51.4-4.9-51.4-10.9,23-10.9,51.4-10.9,51.4,4.9,51.4,10.9Z"/>
              <path class="cls-131" d="M191.1,288.4c0,6-22.9,10.9-51.1,10.9s-51.1-4.9-51.1-10.9,22.9-10.8,51.1-10.8,51.1,4.8,51.1,10.8Z"/>
              <path class="cls-4" d="M190.9,288.4c0,6-22.7,10.8-50.8,10.8s-50.8-4.9-50.8-10.8,22.8-10.8,50.8-10.8,50.8,4.8,50.8,10.8h0Z"/>
              <path class="cls-122" d="M190.6,288.4c0,5.9-22.6,10.8-50.6,10.8s-50.5-4.8-50.5-10.8,22.6-10.7,50.5-10.7,50.6,4.8,50.6,10.7Z"/>
              <path class="cls-66" d="M190.3,288.4c0,5.9-22.5,10.7-50.3,10.7s-50.2-4.8-50.2-10.7,22.5-10.7,50.2-10.7,50.3,4.8,50.3,10.7Z"/>
              <path class="cls-154" d="M190,288.4c0,5.9-22.4,10.6-50,10.6s-50-4.8-50-10.6,22.4-10.6,50-10.6,50,4.7,50,10.6Z"/>
              <path class="cls-86" d="M189.7,288.4c0,5.8-22.2,10.6-49.7,10.6s-49.7-4.7-49.7-10.6,22.3-10.5,49.7-10.5,49.7,4.7,49.7,10.5Z"/>
              <path class="cls-6" d="M189.5,288.4c0,5.8-22.1,10.5-49.4,10.5s-49.4-4.7-49.4-10.5,22.1-10.5,49.4-10.5,49.4,4.7,49.4,10.5Z"/>
              <path class="cls-71" d="M189.2,288.4c0,5.8-22,10.5-49.2,10.5s-49.1-4.7-49.1-10.5,22-10.4,49.1-10.4,49.2,4.7,49.2,10.4h0Z"/>
              <path class="cls-223" d="M188.9,288.3c0,5.7-21.9,10.4-48.9,10.4s-48.8-4.7-48.8-10.4,21.9-10.4,48.8-10.4,48.9,4.6,48.9,10.4Z"/>
              <path class="cls-255" d="M188.6,288.3c0,5.7-21.7,10.3-48.6,10.3s-48.6-4.6-48.6-10.3,21.7-10.3,48.6-10.3,48.6,4.6,48.6,10.3Z"/>
              <path class="cls-84" d="M188.4,288.3c0,5.7-21.6,10.3-48.3,10.3s-48.3-4.6-48.3-10.3,21.6-10.2,48.3-10.2,48.3,4.6,48.3,10.2Z"/>
              <path class="cls-19" d="M188.1,288.3c0,5.6-21.5,10.2-48,10.2s-48-4.6-48-10.2,21.5-10.2,48-10.2,48,4.6,48,10.2Z"/>
              <path class="cls-163" d="M187.8,288.3c0,5.6-21.4,10.2-47.8,10.2s-47.7-4.6-47.7-10.2,21.4-10.1,47.7-10.1,47.8,4.5,47.8,10.1Z"/>
              <path class="cls-8" d="M187.5,288.3c0,5.6-21.2,10.1-47.5,10.1s-47.4-4.5-47.4-10.1,21.2-10.1,47.4-10.1,47.5,4.5,47.5,10.1Z"/>
              <path class="cls-135" d="M187.2,288.3c0,5.5-21.1,10-47.2,10s-47.2-4.5-47.2-10,21.1-10,47.2-10,47.2,4.5,47.2,10Z"/>
              <path class="cls-215" d="M187,288.3c0,5.5-21,10-46.9,10s-46.9-4.5-46.9-10,21-9.9,46.9-9.9,46.9,4.4,46.9,9.9h0Z"/>
              <path class="cls-147" d="M186.7,288.3c0,5.5-20.9,9.9-46.6,9.9s-46.6-4.5-46.6-9.9,20.9-9.9,46.6-9.9,46.6,4.4,46.6,9.9Z"/>
              <path class="cls-196" d="M186.4,288.3c0,5.4-20.7,9.9-46.4,9.9s-46.3-4.4-46.3-9.9,20.8-9.8,46.3-9.8,46.4,4.4,46.4,9.8Z"/>
              <path class="cls-90" d="M186.1,288.3c0,5.4-20.6,9.8-46.1,9.8s-46-4.4-46-9.8,20.6-9.8,46-9.8,46.1,4.4,46.1,9.8Z"/>
              <path class="cls-3" d="M185.8,288.3c0,5.4-20.5,9.8-45.8,9.8s-45.8-4.4-45.8-9.8,20.5-9.7,45.8-9.7,45.8,4.3,45.8,9.7Z"/>
              <path class="cls-176" d="M185.6,288.3c0,5.3-20.4,9.7-45.5,9.7s-45.5-4.3-45.5-9.7,20.4-9.7,45.5-9.7,45.5,4.3,45.5,9.7h0Z"/>
              <path class="cls-52" d="M185.3,288.3c0,5.3-20.2,9.6-45.2,9.6s-45.2-4.3-45.2-9.6,20.2-9.6,45.2-9.6,45.2,4.3,45.2,9.6Z"/>
              <path class="cls-20" d="M185,288.3c0,5.3-20.1,9.6-45,9.6s-44.9-4.3-44.9-9.6,20.1-9.5,44.9-9.5,45,4.3,45,9.5Z"/>
              <path class="cls-48" d="M184.7,288.3c0,5.2-20,9.5-44.7,9.5s-44.6-4.3-44.6-9.5,20-9.5,44.6-9.5,44.7,4.2,44.7,9.5h0Z"/>
              <path class="cls-60" d="M184.4,288.3c0,5.2-19.9,9.5-44.4,9.5s-44.4-4.2-44.4-9.5,19.9-9.4,44.4-9.4,44.4,4.2,44.4,9.4h0Z"/>
              <path class="cls-92" d="M184.2,288.2c0,5.2-19.7,9.4-44.1,9.4s-44.1-4.2-44.1-9.4,19.7-9.4,44.1-9.4,44.1,4.2,44.1,9.4Z"/>
              <path class="cls-220" d="M183.9,288.2c0,5.1-19.6,9.3-43.8,9.3s-43.8-4.2-43.8-9.3,19.6-9.3,43.8-9.3,43.8,4.2,43.8,9.3Z"/>
              <path class="cls-45" d="M183.6,288.2c0,5.1-19.5,9.3-43.6,9.3s-43.5-4.2-43.5-9.3,19.5-9.2,43.5-9.2,43.6,4.1,43.6,9.2h0Z"/>
              <path class="cls-57" d="M183.3,288.2c0,5.1-19.4,9.2-43.3,9.2s-43.3-4.1-43.3-9.2,19.4-9.2,43.3-9.2,43.3,4.1,43.3,9.2Z"/>
              <path class="cls-186" d="M183,288.2c0,5-19.2,9.2-43,9.2s-43-4.1-43-9.2,19.2-9.1,43-9.1,43,4.1,43,9.1Z"/>
              <path class="cls-159" d="M182.8,288.2c0,5-19.1,9.1-42.7,9.1s-42.7-4.1-42.7-9.1,19.1-9.1,42.7-9.1,42.7,4,42.7,9.1Z"/>
              <path class="cls-188" d="M182.5,288.2c0,5-19,9-42.5,9s-42.4-4.1-42.4-9,19-9,42.4-9,42.5,4,42.5,9Z"/>
              <path class="cls-129" d="M182.2,288.2c0,4.9-18.9,9-42.2,9s-42.1-4-42.1-9,18.9-8.9,42.1-8.9,42.2,4,42.2,8.9Z"/>
              <path class="cls-141" d="M181.9,288.2c0,4.9-18.7,8.9-41.9,8.9s-41.9-4-41.9-8.9,18.7-8.9,41.9-8.9,41.9,4,41.9,8.9Z"/>
              <path class="cls-26" d="M181.6,288.2c0,4.9-18.6,8.9-41.6,8.9s-41.6-4-41.6-8.9,18.6-8.8,41.6-8.8,41.6,3.9,41.6,8.8Z"/>
              <path class="cls-81" d="M181.4,288.2c0,4.8-18.5,8.8-41.3,8.8s-41.3-4-41.3-8.8,18.5-8.8,41.3-8.8,41.3,3.9,41.3,8.8Z"/>
              <path class="cls-256" d="M181.1,288.2c0,4.8-18.4,8.7-41.1,8.7s-41-3.9-41-8.7,18.4-8.7,41-8.7,41.1,3.9,41.1,8.7Z"/>
              <path class="cls-109" d="M180.8,288.2c0,4.8-18.2,8.7-40.8,8.7s-40.7-3.9-40.7-8.7,18.2-8.6,40.7-8.6,40.8,3.9,40.8,8.6Z"/>
              <path class="cls-58" d="M180.5,288.2c0,4.8-18.1,8.6-40.5,8.6s-40.5-3.9-40.5-8.6,18.1-8.6,40.5-8.6,40.5,3.8,40.5,8.6Z"/>
              <path class="cls-50" d="M180.3,288.2c0,4.7-18,8.6-40.2,8.6s-40.2-3.8-40.2-8.6,18-8.5,40.2-8.5,40.2,3.8,40.2,8.5h0Z"/>
              <path class="cls-235" d="M180,288.2c0,4.7-17.9,8.5-39.9,8.5s-39.9-3.8-39.9-8.5,17.9-8.5,39.9-8.5,39.9,3.8,39.9,8.5Z"/>
              <path class="cls-77" d="M179.7,288.1c0,4.7-17.7,8.4-39.7,8.4s-39.6-3.8-39.6-8.4,17.7-8.4,39.6-8.4,39.7,3.8,39.7,8.4Z"/>
              <path class="cls-115" d="M179.4,288.1c0,4.6-17.6,8.4-39.4,8.4s-39.3-3.8-39.3-8.4,17.6-8.3,39.3-8.3,39.4,3.7,39.4,8.3Z"/>
              <path class="cls-126" d="M179.1,288.1c0,4.6-17.5,8.3-39.1,8.3s-39.1-3.7-39.1-8.3,17.5-8.3,39.1-8.3,39.1,3.7,39.1,8.3Z"/>
              <path class="cls-205" d="M178.9,288.1c0,4.6-17.4,8.3-38.8,8.3s-38.8-3.7-38.8-8.3,17.4-8.2,38.8-8.2,38.8,3.7,38.8,8.2Z"/>
              <path class="cls-74" d="M178.6,288.1c0,4.5-17.2,8.2-38.5,8.2s-38.5-3.7-38.5-8.2,17.2-8.2,38.5-8.2,38.5,3.6,38.5,8.2Z"/>
              <path class="cls-132" d="M178.3,288.1c0,4.5-17.1,8.2-38.3,8.2s-38.2-3.7-38.2-8.2,17.1-8.1,38.2-8.1,38.3,3.6,38.3,8.1Z"/>
              <path class="cls-118" d="M178,288.1c0,4.4-17,8.1-38,8.1s-37.9-3.6-37.9-8.1,17-8,37.9-8,38,3.6,38,8h0Z"/>
              <path class="cls-201" d="M177.7,288.1c0,4.4-16.9,8-37.7,8s-37.7-3.6-37.7-8,16.9-8,37.7-8,37.7,3.6,37.7,8Z"/>
              <path class="cls-246" d="M177.5,288.1c0,4.4-16.7,8-37.4,8s-37.4-3.6-37.4-8,16.7-7.9,37.4-7.9,37.4,3.5,37.4,7.9Z"/>
              <path class="cls-157" d="M177.2,288.1c0,4.4-16.6,7.9-37.1,7.9s-37.1-3.6-37.1-7.9,16.6-7.9,37.1-7.9,37.1,3.5,37.1,7.9Z"/>
              <path class="cls-253" d="M176.9,288.1c0,4.3-16.5,7.9-36.9,7.9s-36.8-3.5-36.8-7.9,16.5-7.8,36.8-7.8,36.9,3.5,36.9,7.8h0Z"/>
              <path class="cls-22" d="M176.6,288.1c0,4.3-16.4,7.8-36.6,7.8s-36.5-3.5-36.5-7.8,16.4-7.8,36.5-7.8,36.6,3.5,36.6,7.8Z"/>
              <path class="cls-93" d="M176.3,288.1c0,4.3-16.2,7.7-36.3,7.7s-36.3-3.5-36.3-7.7,16.2-7.7,36.3-7.7,36.3,3.4,36.3,7.7Z"/>
              <path class="cls-101" d="M176.1,288.1c0,4.2-16.1,7.7-36,7.7s-36-3.5-36-7.7,16.1-7.6,36-7.6,36,3.4,36,7.6h0Z"/>
              <path class="cls-260" d="M175.8,288.1c0,4.2-16,7.6-35.7,7.6s-35.7-3.4-35.7-7.6,16-7.6,35.7-7.6,35.7,3.4,35.7,7.6Z"/>
              <path class="cls-67" d="M175.5,288.1c0,4.2-15.9,7.6-35.5,7.6s-35.4-3.4-35.4-7.6,15.9-7.5,35.4-7.5,35.5,3.4,35.5,7.5Z"/>
              <path class="cls-33" d="M175.2,288c0,4.1-15.7,7.5-35.2,7.5s-35.1-3.4-35.1-7.5,15.7-7.5,35.1-7.5,35.2,3.3,35.2,7.5Z"/>
              <path class="cls-149" d="M174.9,288c0,4.1-15.6,7.4-34.9,7.4s-34.9-3.3-34.9-7.4,15.6-7.4,34.9-7.4,34.9,3.3,34.9,7.4Z"/>
              <path class="cls-36" d="M174.7,288c0,4.1-15.5,7.4-34.6,7.4s-34.6-3.3-34.6-7.4,15.5-7.3,34.6-7.3,34.6,3.3,34.6,7.3Z"/>
              <path class="cls-209" d="M174.4,288c0,4-15.4,7.3-34.4,7.3s-34.3-3.3-34.3-7.3,15.4-7.3,34.3-7.3,34.4,3.2,34.4,7.3Z"/>
              <path class="cls-120" d="M174.1,288c0,4-15.2,7.3-34.1,7.3s-34-3.3-34-7.3,15.2-7.2,34-7.2,34.1,3.2,34.1,7.2Z"/>
              <path class="cls-56" d="M173.8,288c0,4-15.1,7.2-33.8,7.2s-33.8-3.2-33.8-7.2,15.1-7.2,33.8-7.2,33.8,3.2,33.8,7.2Z"/>
              <path class="cls-89" d="M173.6,288c0,3.9-15,7.1-33.5,7.1s-33.5-3.2-33.5-7.1,15-7.1,33.5-7.1,33.5,3.2,33.5,7.1Z"/>
              <path class="cls-27" d="M173.3,288c0,3.9-14.9,7.1-33.2,7.1s-33.2-3.2-33.2-7.1,14.9-7,33.2-7,33.2,3.1,33.2,7Z"/>
              <path class="cls-241" d="M173,288c0,3.9-14.7,7-33,7s-32.9-3.2-32.9-7,14.7-7,32.9-7,33,3.1,33,7Z"/>
              <path class="cls-182" d="M172.7,288c0,3.8-14.6,7-32.7,7s-32.6-3.1-32.6-7,14.6-6.9,32.6-6.9,32.7,3.1,32.7,6.9Z"/>
              <path class="cls-144" d="M172.4,288c0,3.8-14.5,6.9-32.4,6.9s-32.3-3.1-32.3-6.9,14.5-6.9,32.3-6.9,32.4,3.1,32.4,6.9Z"/>
              <path class="cls-136" d="M172.2,288c0,3.8-14.4,6.8-32.1,6.8s-32.1-3.1-32.1-6.8,14.4-6.8,32.1-6.8,32.1,3,32.1,6.8Z"/>
              <path class="cls-133" d="M171.9,288c0,3.7-14.2,6.8-31.8,6.8s-31.8-3.1-31.8-6.8,14.2-6.7,31.8-6.7,31.8,3,31.8,6.7Z"/>
              <path class="cls-117" d="M171.6,288c0,3.7-14.1,6.7-31.6,6.7s-31.5-3-31.5-6.7,14.1-6.7,31.5-6.7,31.6,3,31.6,6.7h0Z"/>
              <path class="cls-72" d="M171.3,288c0,3.7-14,6.7-31.3,6.7s-31.2-3-31.2-6.7,14-6.6,31.2-6.6,31.3,3,31.3,6.6Z"/>
              <path class="cls-165" d="M171,288c0,3.6-13.9,6.6-31,6.6s-31-3-31-6.6,13.9-6.6,31-6.6,31,2.9,31,6.6Z"/>
              <path class="cls-97" d="M170.8,288c0,3.6-13.7,6.5-30.7,6.5s-30.7-3-30.7-6.5,13.7-6.5,30.7-6.5,30.7,2.9,30.7,6.5h0Z"/>
              <path class="cls-173" d="M170.5,287.9c0,3.6-13.6,6.5-30.4,6.5s-30.4-2.9-30.4-6.5,13.6-6.4,30.4-6.4,30.4,2.9,30.4,6.4Z"/>
              <path class="cls-164" d="M170.2,287.9c0,3.5-13.5,6.4-30.2,6.4s-30.1-2.9-30.1-6.4,13.5-6.4,30.1-6.4,30.2,2.8,30.2,6.4Z"/>
              <path class="cls-174" d="M169.9,287.9c0,3.5-13.4,6.4-29.9,6.4s-29.8-2.9-29.8-6.4,13.4-6.3,29.8-6.3,29.9,2.8,29.9,6.3Z"/>
              <path class="cls-5" d="M169.6,287.9c0,3.5-13.2,6.3-29.6,6.3s-29.6-2.9-29.6-6.3,13.2-6.3,29.6-6.3,29.6,2.8,29.6,6.3Z"/>
              <path class="cls-103" d="M169.4,287.9c0,3.4-13.1,6.2-29.3,6.2s-29.3-2.8-29.3-6.2,13.1-6.2,29.3-6.2,29.3,2.8,29.3,6.2Z"/>
              <path class="cls-258" d="M169.1,287.9c0,3.4-13,6.2-29,6.2s-29-2.8-29-6.2,13-6.2,29-6.2,29,2.7,29,6.2h0Z"/>
              <path class="cls-226" d="M168.8,287.9c0,3.4-12.9,6.1-28.8,6.1s-28.7-2.8-28.7-6.1,12.9-6.1,28.7-6.1,28.8,2.7,28.8,6.1Z"/>
              <path class="cls-34" d="M168.5,287.9c0,3.3-12.7,6.1-28.5,6.1s-28.4-2.7-28.4-6.1,12.7-6,28.4-6,28.5,2.7,28.5,6h0Z"/>
              <path class="cls-76" d="M168.2,287.9c0,3.3-12.6,6-28.2,6s-28.2-2.7-28.2-6,12.6-6,28.2-6,28.2,2.7,28.2,6Z"/>
              <path class="cls-51" d="M168,287.9c0,3.3-12.5,6-27.9,6s-27.9-2.7-27.9-6,12.5-5.9,27.9-5.9,27.9,2.6,27.9,5.9Z"/>
              <path class="cls-7" d="M167.7,287.9c0,3.2-12.4,5.9-27.6,5.9s-27.6-2.7-27.6-5.9,12.4-5.9,27.6-5.9,27.6,2.6,27.6,5.9Z"/>
              <path class="cls-247" d="M167.4,287.9c0,3.2-12.2,5.8-27.4,5.8s-27.3-2.6-27.3-5.8,12.2-5.8,27.3-5.8,27.4,2.6,27.4,5.8Z"/>
              <path class="cls-162" d="M167.1,287.9c0,3.2-12.1,5.8-27.1,5.8s-27-2.6-27-5.8,12.1-5.7,27-5.7,27.1,2.6,27.1,5.7Z"/>
              <path class="cls-166" d="M166.8,287.9c0,3.1-12,5.7-26.8,5.7s-26.8-2.6-26.8-5.7,12-5.7,26.8-5.7,26.8,2.5,26.8,5.7Z"/>
              <path class="cls-155" d="M166.6,287.9c0,3.1-11.9,5.7-26.5,5.7s-26.5-2.6-26.5-5.7,11.9-5.6,26.5-5.6,26.5,2.5,26.5,5.6h0Z"/>
              <path class="cls-61" d="M166.3,287.9c0,3.1-11.7,5.6-26.3,5.6s-26.2-2.5-26.2-5.6,11.7-5.6,26.2-5.6,26.3,2.5,26.3,5.6Z"/>
              <path class="cls-175" d="M166,287.8c0,3-11.6,5.5-26,5.5s-25.9-2.5-25.9-5.5,11.6-5.5,25.9-5.5,26,2.4,26,5.5Z"/>
              <path class="cls-218" d="M165.7,287.8c0,3-11.5,5.5-25.7,5.5s-25.6-2.5-25.6-5.5,11.5-5.4,25.6-5.4,25.7,2.4,25.7,5.4Z"/>
              <path class="cls-80" d="M165.5,287.8c0,3-11.4,5.4-25.4,5.4s-25.4-2.5-25.4-5.4,11.4-5.4,25.4-5.4,25.4,2.4,25.4,5.4Z"/>
              <path class="cls-53" d="M165.2,287.8c0,2.9-11.2,5.4-25.1,5.4s-25.1-2.4-25.1-5.4,11.2-5.3,25.1-5.3,25.1,2.4,25.1,5.3Z"/>
              <path class="cls-238" d="M164.9,287.8c0,2.9-11.1,5.3-24.9,5.3s-24.8-2.4-24.8-5.3,11.1-5.3,24.8-5.3,24.9,2.3,24.9,5.3Z"/>
              <path class="cls-91" d="M164.6,287.8c0,2.9-11,5.2-24.6,5.2s-24.5-2.4-24.5-5.2,11-5.2,24.5-5.2,24.6,2.3,24.6,5.2Z"/>
              <path class="cls-88" d="M164.3,287.8c0,2.8-10.9,5.2-24.3,5.2s-24.3-2.4-24.3-5.2,10.9-5.1,24.3-5.1,24.3,2.3,24.3,5.1Z"/>
              <path class="cls-229" d="M164.1,287.8c0,2.8-10.7,5.1-24,5.1s-24-2.3-24-5.1,10.7-5.1,24-5.1,24,2.3,24,5.1Z"/>
              <path class="cls-151" d="M163.8,287.8c0,2.8-10.6,5.1-23.7,5.1s-23.7-2.3-23.7-5.1,10.6-5,23.7-5,23.7,2.2,23.7,5Z"/>
              <path class="cls-65" d="M163.5,287.8c0,2.7-10.5,5-23.5,5s-23.4-2.3-23.4-5,10.5-5,23.4-5,23.5,2.2,23.5,5Z"/>
              <path class="cls-28" d="M163.2,287.8c0,2.7-10.4,4.9-23.2,4.9s-23.1-2.2-23.1-4.9,10.4-4.9,23.1-4.9,23.2,2.2,23.2,4.9Z"/>
              <path d="M162.9,287.8c0,2.7-10.2,4.9-22.9,4.9s-22.8-2.2-22.8-4.9,10.2-4.8,22.8-4.8,22.9,2.2,22.9,4.8Z"/>
            </g>
            <g>
              <path class="cls-16" d="M188.7,331.2h-25.7v20.5h20.5v5.1h-20.5v24.1h26.9v5.3h-33.4v-60.4h32.3v5.4h0Z"/>
              <g>
                <path d="M45.9,349.2c.8.9,1.8,1.7,3,2.4,1.2.7,2.5,1.1,4.1,1.1s3.2-.4,4.3-1.3c1.1-.8,1.6-2,1.6-3.6s-.5-2.7-1.5-3.4c-1-.7-2.4-1.5-4.4-2.2l-1.5-.6c-2.1-.7-3.8-1.7-5.2-3-1.4-1.3-2.1-3-2.1-5s.8-3.8,2.4-5c1.6-1.2,3.6-1.9,6.1-1.9s3.5.3,4.7.9c1.3.5,2.4,1.3,3.5,2.4l-1.7,2c-.8-.7-1.6-1.3-2.7-1.9-1-.6-2.2-.9-3.7-.9s-2.9.4-4,1.1c-1,.8-1.6,1.7-1.6,2.9s.6,2.6,1.8,3.4c1.2.8,2.4,1.5,3.7,1.9l2.6,1.1c2.7,1,4.5,2.1,5.4,3.2.9,1.1,1.4,2.6,1.4,4.5s-.9,4.4-2.6,5.7c-1.7,1.3-3.9,2-6.4,2s-2,0-2.8-.2c-.9-.2-1.7-.4-2.4-.7-.8-.3-1.5-.7-2.2-1.2-.7-.5-1.3-1.1-1.9-1.8l2.2-2.1h0Z"/>
                <path d="M73.1,327.5h2.9l9,27.2h-3.3l-2.9-9.3h-9.2l-2.9,9.3h-2.9l9.3-27.2h0ZM70.3,343.3h8l-3.9-12.5-4.1,12.5h0Z"/>
                <path d="M100.6,354.7h-2.7l-6.9-20.5v20.5h-2.9v-27.2h3l8.2,24.1,8.1-24.1h3v27.2h-2.9v-20.5l-6.8,20.5h0Z"/>
                <path d="M118.6,343.2v11.4h-2.9v-27.2h7.4c2.8,0,4.9.6,6.5,2.1,1.5,1.3,2.3,3.3,2.3,5.8s-.9,3.9-2.7,5.5c-1.7,1.6-4.3,2.4-7.6,2.4h-3,0ZM118.6,341h2.9c2.2,0,4-.5,5.3-1.6,1.3-1.1,2-2.5,2-4.3s-.5-3.2-1.6-4.1c-1.1-.9-2.8-1.3-5.2-1.3h-3.4v11.3h0Z"/>
                <path d="M151,354.7h-15.3v-27.2h3v24.8h12.3v2.4Z"/>
              </g>
              <path d="M150.7,361.7h-8.5v24.7h-3v-24.7h-8.4v-2.5h19.9v2.5h0Z"/>
              <path d="M206.2,371.5l9.3,14.9h-3.2l-7.6-12.2-7.2,12.2h-3l8.9-14.4-8-12.8h3.2l6.3,10.3,6.7-10.3h3.1l-8.3,12.3h0Z"/>
              <path d="M236.5,361.7h-8.5v24.7h-3v-24.7h-8.4v-2.5h19.9v2.5h0Z"/>
            </g>
            <g>
              <path class="cls-18" d="M171.7,68.6c0,37.9-14.4,68.6-32.3,68.6s-32.3-30.7-32.3-68.6S139.5,0,139.5,0c0,0,32.3,30.7,32.3,68.6Z"/>
              <path class="cls-10" d="M201.1,94.2c-23.3,31.4-54.2,49.6-68.9,40.6-14.8-9.1-7.9-41.8,15.4-73.3,23.3-31.4,69-40.6,69-40.6,0,0,7.9,41.9-15.4,73.3h0Z"/>
              <path class="cls-9" d="M204.2,154c-41.8-.4-75.5-13.8-75.3-30,.2-16.2,34.2-29,75.9-28.6,41.8.4,75.3,30,75.3,30,0,0-34.2,28.9-75.9,28.6h0Z"/>
              <path class="cls-17" d="M75.6,95.4c41.7,0,75.6,13.1,75.6,29.3s-33.9,29.3-75.6,29.3c-41.7,0-75.6-29.3-75.6-29.3,0,0,33.9-29.3,75.6-29.3h0Z"/>
              <path class="cls-11" d="M130.6,62.4c22.2,32.1,27.9,65.1,12.8,73.7-15.1,8.6-45.3-10.5-67.5-42.6-22.2-32.1-12.8-73.7-12.8-73.7,0,0,45.3,10.5,67.5,42.6h0Z"/>
              <path class="cls-14" d="M107.8,182.4c0-37.9,14.4-68.6,32.3-68.6s32.3,30.7,32.3,68.6-32.3,68.6-32.3,68.6c0,0-32.3-30.7-32.3-68.6h0Z"/>
              <path class="cls-12" d="M78.4,156.8c23.3-31.5,54.1-49.7,68.9-40.6,14.8,9,7.9,41.8-15.4,73.3-23.3,31.5-69,40.6-69,40.6,0,0-7.9-41.8,15.4-73.3h0Z"/>
              <path class="cls-13" d="M148.9,188.6c-22.2-32.1-27.9-65.1-12.8-73.7,15.1-8.6,45.3,10.5,67.5,42.6,22.2,32.1,12.8,73.7,12.8,73.7,0,0-45.3-10.4-67.5-42.6h0Z"/>
            </g>
          </g>
        </g>
      </g>
    </g>
  </g>
</svg>